<svg version="1.2" xmlns="http://www.w3.org/2000/svg" viewBox="0 0 500 68" width="500" height="68">
	<title>New Project</title>
	<style>
		.s0 { fill: #ffffff } 
	</style>
	<path id="Sirius online" class="s0" aria-label="Sirius online"  d="m24.6 54.5q-4.9 0-8.9-1.2-4-1.3-7-3.6l2.1-4.7q1.9 1.5 4 2.4 2.2 1 4.5 1.6 2.5 0.4 5.3 0.4 4.9 0 7.2-1.7 2.3-1.8 2.3-4.6 0-2.4-1.7-3.8-1.5-1.3-5.5-2.1l-6.3-1.3q-5.7-1.2-8.5-3.8-2.7-2.6-2.7-7.2 0-3.7 2-6.5 2-2.8 5.4-4.3 3.6-1.5 8.3-1.5 4.3 0 8 1.3 3.6 1.2 6.1 3.6l-1.9 4.6q-2.6-2.3-5.6-3.3-3-1.1-6.7-1.1-4.5 0-7.1 1.8-2.4 1.9-2.4 5.1 0 2.5 1.5 4 1.6 1.4 5.4 2.2l6.3 1.2q5.8 1.2 8.6 3.8 2.8 2.5 2.8 6.9 0 3.5-1.9 6.2-1.9 2.7-5.3 4.2-3.5 1.4-8.3 1.4zm28.3-0.5h-5.9v-29.2h5.9zm0.4-35.4h-6.8v-6h6.8zm13.9 35.3h-5.9v-22q0-1.8-0.1-3.6 0-1.9-0.2-3.7h5.7l0.6 7.6h-0.9q0.6-2.7 1.9-4.5 1.4-1.8 3.4-2.7 2-0.9 4.2-0.9 1 0 1.6 0.1 0.7 0.1 1.3 0.3l-0.1 5.2q-1-0.4-1.7-0.5-0.7-0.1-1.7-0.1-2.6 0-4.4 1.2-1.8 1.1-2.7 3-1 1.9-1 4.1zm22 0h-5.9v-29.2h5.9zm0.4-35.3h-6.8v-6.1h6.8zm18.5 35.8q-5.2 0-7.9-2.8-2.6-2.9-2.6-8.9v-18h5.8v17.9q0 3.6 1.5 5.4 1.6 1.7 4.6 1.7 3.5 0 5.7-2.3 2.1-2.3 2.1-6.2v-16.5h5.9v29.2h-5.7v-6.3h0.7q-1.2 3.3-3.9 5.1-2.6 1.7-6.2 1.7zm33.7 0q-3.7 0-6.8-0.9-3-1-5.1-2.6l1.8-4q2.2 1.6 4.8 2.4 2.6 0.8 5.3 0.8 3.2 0 4.8-1.1 1.7-1.1 1.7-3.1 0-1.5-1.1-2.5-1-0.9-3.3-1.3l-5.5-1.2q-3.8-0.8-5.7-2.7-1.9-2-1.9-5.1 0-2.6 1.4-4.6 1.5-2.1 4.1-3.2 2.6-1.2 6.2-1.2 3.2 0 6 1 2.8 0.9 4.6 2.6l-1.8 3.9q-1.8-1.5-4.1-2.3-2.2-0.9-4.6-0.9-3.2 0-4.8 1.2-1.5 1.3-1.5 3.2 0 1.5 0.9 2.5 1 1 3.1 1.5l5.5 1.1q4 0.8 6 2.6 1.9 1.9 1.9 5 0 2.8-1.5 4.8-1.5 2-4.2 3.1-2.6 1-6.2 1zm46.8 0q-4.3 0-7.5-1.8-3.2-1.8-4.9-5.2-1.8-3.4-1.8-8.1 0-4.7 1.8-8.1 1.7-3.4 4.9-5.2 3.2-1.9 7.5-1.9 4.4 0 7.6 1.9 3.2 1.8 5 5.2 1.8 3.4 1.8 8.1 0 4.7-1.8 8.1-1.8 3.4-5 5.2-3.2 1.8-7.6 1.8zm0-4.6q3.9 0 6.1-2.6 2.3-2.7 2.3-7.9 0-5.3-2.3-7.9-2.2-2.6-6.1-2.6-3.7 0-6 2.6-2.3 2.6-2.3 7.9 0 5.2 2.3 7.9 2.2 2.6 6 2.6zm27.1 4.1h-5.9v-22.2q0-1.7-0.2-3.5-0.1-1.8-0.3-3.5h5.7l0.6 6.1h-0.7q1.3-3.2 4.1-4.9 2.8-1.8 6.4-1.8 5.2 0 7.8 2.9 2.7 2.8 2.7 8.8v18.1h-5.9v-17.8q0-3.9-1.6-5.5-1.5-1.8-4.6-1.8-3.7 0-5.9 2.3-2.2 2.3-2.2 6.2zm34.4 0h-5.9v-42.7h5.9zm14.4 0h-5.9v-29.2h5.9zm0.5-35.3h-6.8v-6.1h6.8zm13.9 35.3h-5.8v-22.2q0-1.7-0.2-3.5-0.1-1.7-0.3-3.5h5.7l0.5 6.1h-0.7q1.4-3.2 4.2-4.9 2.7-1.8 6.4-1.8 5.2 0 7.8 2.9 2.6 2.8 2.6 8.8v18.1h-5.8v-17.8q0-3.8-1.6-5.5-1.5-1.8-4.6-1.8-3.7 0-5.9 2.3-2.3 2.3-2.3 6.2zm42.1 0.5q-7.1 0-11.1-4-4.1-4-4.1-11.1 0-4.5 1.7-8 1.8-3.4 5-5.2 3.2-2 7.3-2 4.2 0 6.9 1.8 2.8 1.7 4.3 4.9 1.4 3.1 1.4 7.4v1.9h-22v-3.4h18l-1 0.8q0-4.4-1.9-6.7-2-2.5-5.6-2.5-4.1 0-6.3 2.9-2.2 2.7-2.2 7.7v0.6q0 5.1 2.5 7.7 2.6 2.6 7.2 2.6 2.6 0 4.8-0.7 2.2-0.7 4.3-2.4l1.9 4q-2.1 1.8-5 2.8-2.9 0.9-6.1 0.9z"/>
</svg>